<svg width="512" height="512" viewBox="0 0 512 512" fill="none" xmlns="http://www.w3.org/2000/svg">
<path d="M256 512C114.836 512 0 397.164 0 256C0 114.836 114.836 0 256 0C397.164 0 512 114.836 512 256C512 397.164 397.164 512 256 512ZM256 32C132.48 32 32 132.48 32 256C32 379.52 132.48 480 256 480C379.52 480 480 379.52 480 256C480 132.48 379.52 32 256 32Z" fill="white"/>
<path d="M117.332 309.332C87.9141 309.332 64 285.398 64 256C64 226.602 87.9141 202.668 117.332 202.668C146.754 202.668 170.668 226.602 170.668 256C170.668 285.398 146.754 309.332 117.332 309.332ZM117.332 234.668C105.559 234.668 96 244.246 96 256C96 267.754 105.559 277.332 117.332 277.332C129.109 277.332 138.668 267.754 138.668 256C138.668 244.246 129.109 234.668 117.332 234.668Z" fill="white"/>
<path d="M256 309.332C226.582 309.332 202.668 285.398 202.668 256C202.668 226.602 226.582 202.668 256 202.668C285.418 202.668 309.332 226.602 309.332 256C309.332 285.398 285.418 309.332 256 309.332ZM256 234.668C244.223 234.668 234.668 244.246 234.668 256C234.668 267.754 244.223 277.332 256 277.332C267.777 277.332 277.332 267.754 277.332 256C277.332 244.246 267.777 234.668 256 234.668Z" fill="white"/>
<path d="M394.668 309.332C365.246 309.332 341.332 285.398 341.332 256C341.332 226.602 365.246 202.668 394.668 202.668C424.086 202.668 448 226.602 448 256C448 285.398 424.086 309.332 394.668 309.332V309.332ZM394.668 234.668C382.891 234.668 373.332 244.246 373.332 256C373.332 267.754 382.891 277.332 394.668 277.332C406.441 277.332 416 267.754 416 256C416 244.246 406.441 234.668 394.668 234.668V234.668Z" fill="white"/>
</svg>
