<svg width="512" height="512" viewBox="0 0 512 512" fill="none" xmlns="http://www.w3.org/2000/svg">
<path d="M479.999 0C263.145 0 84.777 166.827 65.876 378.837C101.908 328.021 146.047 279.125 201.151 222.912C205.247 218.688 212.031 218.603 216.234 222.763C220.437 226.88 220.501 233.643 216.383 237.846C208.084 246.294 199.658 255.062 191.188 263.937C186.345 268.993 181.609 274.028 176.959 278.977C176.106 279.894 175.252 280.812 174.399 281.75C106.303 354.667 57.62 418.133 22.27 496.96C19.859 502.336 22.27 508.651 27.625 511.061C29.054 511.701 30.526 512 31.998 512C36.073 512 39.977 509.653 41.747 505.707C54.334 477.654 68.947 451.627 85.374 426.304C234.366 422.485 369.982 339.605 441.065 207.723C442.836 204.416 442.75 200.427 440.83 197.184C438.889 193.984 435.411 192 431.657 192H392.148L462.996 151.509C465.236 150.229 466.964 148.16 467.796 145.728C482.985 101.568 490.665 56.128 490.665 10.667C490.665 4.779 485.887 0 479.999 0Z" fill="white"/>
</svg>
