<svg width="469" height="469" viewBox="0 0 469 469" fill="none" xmlns="http://www.w3.org/2000/svg">
<path d="M282.467 447.704C281.081 447.704 279.672 447.532 278.287 447.15C269.761 444.866 264.73 436.064 267.033 427.558L373.621 33.1706C375.924 24.6219 384.707 19.5045 393.236 21.9129C401.761 24.1965 406.793 32.9988 404.49 41.5045L297.902 435.892C295.981 443.012 289.521 447.704 282.467 447.704V447.704Z" fill="white"/>
<path d="M79.9432 447.704C78.5575 447.704 77.1523 447.532 75.7665 447.15C67.2374 444.866 62.2058 436.064 64.5089 427.558L171.101 33.1706C173.4 24.6219 182.206 19.5045 190.712 21.9129C199.241 24.1965 204.269 32.9988 201.97 41.5045L95.3776 435.892C93.4571 443.012 87.0007 447.704 79.9432 447.704Z" fill="white"/>
<path d="M410.376 341.112H15.9886C7.16288 341.112 0 333.949 0 325.123C0 316.297 7.16288 309.134 15.9886 309.134H410.376C419.202 309.134 426.365 316.297 426.365 325.123C426.365 333.949 419.202 341.112 410.376 341.112Z" fill="white"/>
<path d="M453.01 159.908H58.6263C49.8006 159.908 42.6377 152.746 42.6377 143.92C42.6377 135.094 49.8006 127.931 58.6263 127.931H453.01C461.836 127.931 468.999 135.094 468.999 143.92C468.999 152.746 461.836 159.908 453.01 159.908Z" fill="white"/>
</svg>
