<svg width="346" height="346" viewBox="0 0 346 346" fill="none" xmlns="http://www.w3.org/2000/svg">
<g clip-path="url(#clip0)">
<path d="M290.025 9.6C282.305 3.605 271.832 0.225 260.9 0.2H85.3196V0C74.3703 0.015 63.8756 3.396 56.1423 9.4C48.4026 15.38 44.0389 23.493 44.0066 31.96V317.72C43.8414 324.72 46.7759 331.552 52.3208 337.08C60.1032 344.825 73.5828 347.619 85.3196 343.92C95.6452 340.414 104.205 334.388 109.694 326.76L173.11 248.44L236.525 326.76C242.014 334.388 250.574 340.414 260.9 343.92C272.68 347.666 286.24 344.869 294.053 337.08C299.543 331.536 302.422 324.705 302.213 317.72V31.96C302.099 23.556 297.721 15.525 290.025 9.6ZM277.425 326.92C276.407 327.957 275 328.726 273.397 329.12C271.668 329.413 269.866 329.287 268.233 328.76C262.203 326.518 257.236 322.867 254.031 318.32L181.734 229.12C180.861 227.994 179.645 227.051 178.191 226.376C173.299 224.103 166.955 225.331 164.021 229.12L91.7231 318.2C88.5884 322.809 83.6541 326.532 77.625 328.84C75.9932 329.37 74.1896 329.496 72.4609 329.2C70.8574 328.806 69.4502 328.037 68.4329 327C65.958 324.312 64.7212 321.058 64.9213 317.76V32C65.0607 23.319 74.1121 16.308 85.3196 16.2H173.11H260.9C272.004 16.352 280.911 23.358 280.936 31.96V317.68C281.136 320.978 279.9 324.232 277.425 326.92Z" fill="white"/>
</g>
<defs>
<clipPath id="clip0">
<rect width="345.567" height="345.567" fill="white"/>
</clipPath>
</defs>
</svg>
