<svg width="480" height="480" viewBox="0 0 480 480" fill="none" xmlns="http://www.w3.org/2000/svg">
<path d="M272 176.232H208C203.582 176.232 200 179.814 200 184.232V408.232C200 412.65 203.582 416.232 208 416.232H272C276.418 416.232 280 412.65 280 408.232V184.232C280 179.813 276.418 176.232 272 176.232ZM264 400.232H216V192.232H264V400.232Z" fill="#42AEF0"/>
<path d="M464 144.232H400C395.582 144.232 392 147.814 392 152.232V408.232C392 412.65 395.582 416.232 400 416.232H464C468.418 416.232 472 412.65 472 408.232V152.232C472 147.813 468.418 144.232 464 144.232ZM456 400.232H408V160.232H456V400.232Z" fill="#42AEF0"/>
<path d="M368 320.232H304C299.582 320.232 296 323.814 296 328.232V408.232C296 412.65 299.582 416.232 304 416.232H368C372.418 416.232 376 412.65 376 408.232V328.232C376 323.813 372.418 320.232 368 320.232ZM360 400.232H312V336.232H360V400.232Z" fill="#42AEF0"/>
<path d="M80 208.232H16C11.582 208.232 8 211.814 8 216.232V408.232C8 412.65 11.582 416.232 16 416.232H80C84.418 416.232 88 412.65 88 408.232V216.232C88 211.813 84.418 208.232 80 208.232ZM72 400.232H24V224.232H72V400.232Z" fill="#42AEF0"/>
<path d="M176 256.232H112C107.582 256.232 104 259.814 104 264.232V408.232C104 412.65 107.582 416.232 112 416.232H176C180.418 416.232 184 412.65 184 408.232V264.232C184 259.813 180.418 256.232 176 256.232ZM168 400.232H120V272.232H168V400.232Z" fill="#42AEF0"/>
<path d="M432.465 7.76892C414.664 7.64092 400.13 21.9669 400.002 39.7679C399.937 48.7559 403.628 57.3629 410.185 63.5109L343.785 185.295C337.77 183.63 331.381 183.925 325.545 186.135L263.776 93.4399C275.611 80.3149 274.565 60.0799 261.439 48.2459C248.313 36.4119 228.079 37.4569 216.245 50.5829C207.55 60.2269 205.544 74.1689 211.168 85.8729L162.6 126.296C149.276 116.577 130.716 118.752 120 131.288L79.2721 110.92C82.9661 93.6369 71.9491 76.6319 54.6671 72.9389C37.3841 69.2449 20.3791 80.2609 16.6861 97.5439C12.9921 114.827 24.0081 131.832 41.2911 135.525C43.4961 135.996 45.7451 136.233 48.0001 136.232C57.2251 136.202 65.9821 132.168 72.0001 125.176L112.728 145.544C108.885 162.794 119.754 179.894 137.004 183.737C154.254 187.58 171.354 176.711 175.197 159.461C176.76 152.446 175.916 145.109 172.8 138.632L221.368 98.2079C229.739 104.403 240.667 105.967 250.44 102.368L312.192 195.064C300.389 208.218 301.485 228.45 314.64 240.253C327.794 252.056 348.026 250.96 359.829 237.805C371.487 224.812 370.581 204.874 357.793 192.992L424.193 71.2079C426.743 71.8739 429.366 72.2179 432.001 72.2319C449.802 72.3599 464.336 58.0339 464.464 40.2329C464.592 22.4319 450.265 7.89792 432.465 7.76892ZM48.0001 120.232C39.1631 120.232 32.0001 113.069 32.0001 104.232C32.0001 95.3949 39.1631 88.2319 48.0001 88.2319C56.8371 88.2319 64.0001 95.3949 64.0001 104.232C64.0001 113.069 56.8371 120.232 48.0001 120.232ZM144 168.232C135.163 168.232 128 161.069 128 152.232C128 143.395 135.163 136.232 144 136.232C152.837 136.232 160 143.395 160 152.232C160 161.069 152.837 168.232 144 168.232ZM240 88.2319C231.163 88.2319 224 81.0689 224 72.2319C224 63.3949 231.163 56.2319 240 56.2319C248.837 56.2319 256 63.3949 256 72.2319C256 81.0689 248.837 88.2319 240 88.2319ZM336 232.232C327.163 232.232 320 225.069 320 216.232C320 207.395 327.163 200.232 336 200.232C344.837 200.232 352 207.395 352 216.232C352 225.069 344.837 232.232 336 232.232ZM432 56.2319C423.163 56.2319 416 49.0689 416 40.2319C416 31.3949 423.163 24.2319 432 24.2319C440.837 24.2319 448 31.3949 448 40.2319C448 49.0689 440.837 56.2319 432 56.2319Z" fill="#42AEF0"/>
<path d="M472 424.232H8C3.582 424.232 0 427.814 0 432.232V464.232C0 468.65 3.582 472.232 8 472.232H472C476.418 472.232 480 468.65 480 464.232V432.232C480 427.813 476.418 424.232 472 424.232ZM464 456.232H16V440.232H464V456.232Z" fill="#42AEF0"/>
</svg>
