<svg width="504" height="444" viewBox="0 0 504 444" fill="none" xmlns="http://www.w3.org/2000/svg">
<path fill-rule="evenodd" clip-rule="evenodd" d="M238.19 2.87405C242.631 0.675402 247.494 0.278532 251.95 1.40306C256.405 0.27832 261.269 0.6751 265.71 2.87382L491.978 114.898C501.877 119.799 505.929 131.796 501.028 141.695L486.99 170.05C482.089 179.949 470.091 184.001 460.192 179.1L445.87 172.009C445.784 174.649 445.488 177.322 444.967 180.013L401.846 402.517C397.29 426.026 376.706 443.004 352.759 443.004H145.683C121.539 443.004 100.844 425.752 96.4988 402.002L55.7932 179.498C55.4238 177.479 55.1807 175.47 55.0577 173.48L43.7087 179.098C33.8098 183.999 21.8122 179.948 16.9113 170.049L2.87387 141.696C-2.02707 131.797 2.02458 119.8 11.9235 114.899L73 84.6597V84.005H74.3224L238.19 2.87405ZM251.947 75.9996L251.946 76.0002H251.949L251.947 75.9996ZM251 267.004C288.003 267.004 318 237.008 318 200.004C318 163.001 288.003 133.004 251 133.004C213.997 133.004 184 163.001 184 200.004C184 237.008 213.997 267.004 251 267.004Z" fill="white"/>
</svg>
