<svg width="512" height="512" viewBox="0 0 512 512" fill="none" xmlns="http://www.w3.org/2000/svg">
<path d="M437.02 74.98C388.667 26.629 324.38 0 256 0C187.62 0 123.333 26.629 74.98 74.98C26.629 123.333 0 187.62 0 256C0 324.38 26.629 388.668 74.98 437.02C123.333 485.371 187.62 512 256 512C324.38 512 388.667 485.371 437.02 437.02C485.371 388.668 512 324.38 512 256C512 187.62 485.371 123.333 437.02 74.98ZM256 472C136.897 472 40 375.103 40 256C40 136.897 136.897 40 256 40C375.103 40 472 136.897 472 256C472 375.103 375.103 472 256 472Z" fill="#42AEF0"/>
<path d="M368.993 285.776C368.921 285.99 361.695 307.402 343.973 328.169C321.419 354.599 292.628 368 258.4 368C223.925 368 194.205 354.439 170.067 327.697C151.147 306.735 142.795 285.157 142.737 285.006L105.262 298.996C105.682 300.118 115.795 326.788 139.275 353.269C171.022 389.074 212.215 408 258.4 408C304.812 408 345.304 388.924 375.499 352.834C397.817 326.159 406.664 299.284 407.03 298.153L368.993 285.776Z" fill="#42AEF0"/>
<path d="M168 212.12C185.673 212.12 200 197.793 200 180.12C200 162.447 185.673 148.12 168 148.12C150.327 148.12 136 162.447 136 180.12C136 197.793 150.327 212.12 168 212.12Z" fill="#42AEF0"/>
<path d="M344 212.12C361.673 212.12 376 197.793 376 180.12C376 162.447 361.673 148.12 344 148.12C326.327 148.12 312 162.447 312 180.12C312 197.793 326.327 212.12 344 212.12Z" fill="#42AEF0"/>
</svg>
