<svg width="52" height="52" viewBox="0 0 52 52" fill="none" xmlns="http://www.w3.org/2000/svg">
<path d="M13.9997 24.138C17.0707 24.138 19.5687 21.64 19.5687 18.57C19.5687 15.498 17.0707 13 13.9997 13C10.9287 13 8.43066 15.498 8.43066 18.569C8.43066 21.64 10.9287 24.138 13.9997 24.138ZM13.9997 15C15.9677 15 17.5687 16.602 17.5687 18.569C17.5687 20.536 15.9677 22.138 13.9997 22.138C12.0317 22.138 10.4307 20.537 10.4307 18.57C10.4307 16.603 12.0317 15 13.9997 15Z" fill="#42AEF0"/>
<path d="M1 0V40V52H51V40V0H1ZM3 2H49V28.727L38.676 19.263C38.48 19.084 38.222 18.995 37.956 19.001C37.691 19.013 37.441 19.13 37.262 19.326L27.468 30.053L22.725 25.31C22.351 24.937 21.753 24.918 21.357 25.266L4.622 40H3V2ZM49 50H3V42H49V50ZM7.649 40L21.973 27.389L32.275 37.69C32.666 38.081 33.298 38.081 33.689 37.69C34.08 37.299 34.08 36.667 33.689 36.276L28.882 31.469L38.063 21.415L49 31.44V40H7.649Z" fill="#42AEF0"/>
</svg>
