<svg width="512" height="512" viewBox="0 0 512 512" fill="none" xmlns="http://www.w3.org/2000/svg">
<path d="M468.162 394.184L431.511 333.128C414.615 304.947 405.676 272.691 405.676 239.816V186.333C405.676 104.008 338.668 37 256.343 37C174.018 37 107.01 104.008 107.01 186.333V239.816C107.01 272.691 98.0706 304.947 81.1746 333.128L44.5236 394.184C42.5396 397.469 42.4966 401.587 44.3746 404.915C46.2736 408.264 49.8356 410.334 53.6756 410.334H459.009C462.849 410.334 466.412 408.265 468.31 404.915C470.188 401.586 470.146 397.469 468.162 394.184ZM72.5136 389L99.4576 344.093C118.359 312.605 128.343 276.552 128.343 239.816V186.333C128.343 115.741 185.751 58.333 256.343 58.333C326.935 58.333 384.343 115.741 384.343 186.333V239.816C384.343 276.552 394.327 312.605 413.207 344.093L440.172 389H72.5136Z" fill="white"/>
<path d="M302.508 394.269C299.5 389.192 292.993 387.528 287.895 390.45C282.796 393.437 281.09 399.986 284.076 405.063C286.849 409.778 288.364 415.431 288.364 420.999C288.364 438.642 274.007 452.999 256.364 452.999C238.721 452.999 224.364 438.642 224.364 420.999C224.364 415.431 225.879 409.778 228.652 405.063C231.617 399.964 229.911 393.436 224.833 390.45C219.692 387.527 213.206 389.191 210.22 394.269C205.505 402.333 203.009 411.57 203.009 421C203.01 450.418 226.924 474.333 256.343 474.333C285.762 474.333 309.676 450.418 309.719 421C309.719 411.57 307.223 402.333 302.508 394.269Z" fill="white"/>
</svg>
