<svg width="511" height="511" viewBox="0 0 511 511" fill="none" xmlns="http://www.w3.org/2000/svg">
<g clip-path="url(#clip0)">
<path d="M159.707 463.199C352.549 463.199 458.003 303.437 458.003 164.904C458.003 160.366 457.909 155.847 457.707 151.352C478.175 136.553 495.968 118.085 510.003 97.0636C491.219 105.414 471.001 111.032 449.796 113.57C471.442 100.588 488.061 80.0577 495.898 55.5822C475.64 67.5899 453.208 76.3151 429.325 81.0285C410.194 60.6504 382.954 47.9058 352.795 47.9058C294.9 47.9058 247.949 94.8569 247.949 152.732C247.949 160.962 248.869 168.962 250.666 176.638C163.532 172.253 86.265 130.537 34.5613 67.0987C25.5594 82.5919 20.3664 100.592 20.3664 119.796C20.3664 156.167 38.8771 188.28 67.0213 207.063C49.8206 206.533 33.6647 201.812 19.5399 193.952C19.5243 194.393 19.5243 194.822 19.5243 195.29C19.5243 246.065 55.6607 288.459 103.637 298.065C94.8263 300.463 85.5554 301.753 75.9921 301.753C69.2474 301.753 62.6744 301.09 56.2845 299.862C69.6334 341.519 108.339 371.831 154.226 372.681C118.343 400.806 73.1383 417.558 24.0117 417.558C15.5594 417.558 7.20857 417.075 -0.998047 416.108C45.3995 445.847 100.499 463.203 159.711 463.203" fill="white"/>
</g>
<defs>
<clipPath id="clip0">
<rect width="511" height="511" fill="white"/>
</clipPath>
</defs>
</svg>
