<svg width="323" height="323" viewBox="0 0 323 323" fill="none" xmlns="http://www.w3.org/2000/svg">
<g clip-path="url(#clip0)">
<path d="M321.6 180.601C320.8 179.001 318.8 178.201 317.2 177.801C308 177.801 228.8 174.601 228.8 82.601C228.8 79.801 226.4 77.401 223.6 77.401C220.8 77.401 218.4 79.801 218.4 82.601C218.4 174.601 139.2 177.801 130.4 177.801C129.2 177.801 128 178.201 127.2 179.001C126.4 179.401 126 180.201 125.6 180.601C124.8 182.201 124.8 184.201 125.6 185.801C126.4 187.401 128.4 188.601 130.4 188.601C130.4 188.601 130.4 188.601 130.8 188.601C140 188.601 218.8 191.801 218.8 283.801C218.8 286.601 221.2 289.001 224 289.001C226.8 289.001 229.2 286.601 229.2 283.801C229.2 192.201 308 188.601 317.2 188.601C319.2 188.601 320.8 187.401 322 185.801C322.8 184.201 322.8 182.201 321.6 180.601ZM223.6 244.601C212 206.601 183.6 190.201 161.2 183.001C183.6 175.801 212 159.401 223.6 121.401C235.2 159.401 263.6 175.801 286 183.001C263.6 190.201 235.2 206.601 223.6 244.601Z" fill="#1CA1F2"/>
<path d="M157.6 76.601C160.4 76.601 162.8 74.201 162.8 71.001C162.8 68.201 160.4 65.801 157.6 65.801C152.8 65.801 109.6 64.201 109.6 13.801C109.6 11.001 107.2 8.60101 104.4 8.60101C101.6 8.60101 99.2 11.001 99.2 13.801C99.2 64.201 56 65.801 51.2 65.801C50.8 65.801 50.8 65.801 50.8 65.801C48 66.201 46 68.201 46 71.001C46 73.801 48.4 76.201 51.2 76.201C56.4 76.201 99.2 77.801 99.2 128.201C99.2 131.001 101.6 133.401 104.4 133.401C106.8 133.801 109.2 131.401 109.2 128.601C109.2 78.201 152.4 76.601 157.2 76.601H157.6ZM104 99.401C97.6 84.201 86 75.801 75.2 71.001C86.8 66.201 97.6 57.001 104 42.601C110.4 57.801 122 66.201 132.8 71.001C121.2 75.801 110.4 85.001 104 99.401Z" fill="#1CA1F2"/>
<path d="M111.6 246.201C106.8 246.201 63.6 244.601 63.6 194.201C63.6 191.401 61.2 189.001 58.4 189.001C55.6 189.001 53.2 191.401 53.2 194.201C53.2 244.601 10 246.201 5.2 246.201C4.8 246.201 4.8 246.201 4.8 246.201C2 246.601 0 248.601 0 251.401C0 254.201 2.4 256.601 5.2 256.601C10.4 256.601 53.2 258.201 53.2 308.601C53.2 311.401 55.6 313.801 58.4 313.801C60.8 314.601 63.2 312.201 63.2 309.001C63.2 258.601 106.4 257.001 111.2 257.001H111.6C114.4 257.001 116.8 254.601 116.8 251.401C116.8 248.601 114.4 246.201 111.6 246.201ZM58 280.201C51.2 265.001 40 256.601 29.2 251.801C40.8 247.001 51.6 237.801 58 223.401C64.4 238.601 76 247.001 86.8 251.801C75.2 256.601 64.4 265.801 58 280.201Z" fill="#1CA1F2"/>
</g>
<defs>
<clipPath id="clip0">
<rect width="322.558" height="322.558" fill="white"/>
</clipPath>
</defs>
</svg>
