<svg width="512" height="512" viewBox="0 0 512 512" fill="none" xmlns="http://www.w3.org/2000/svg">
<path d="M411 512H101.668C69.3047 512 43 485.695 43 453.332V58.668C43 26.3047 69.3047 0 101.668 0H411C443.363 0 469.668 26.3047 469.668 58.668V453.332C469.668 485.695 443.363 512 411 512ZM101.668 32C86.9688 32 75 43.9688 75 58.668V453.332C75 468.031 86.9688 480 101.668 480H411C425.699 480 437.668 468.031 437.668 453.332V58.668C437.668 43.9688 425.699 32 411 32H101.668Z" fill="#42AEF0"/>
<path d="M176.332 426.668H144.332C123.746 426.668 107 409.922 107 389.332V336C107 315.414 123.746 298.668 144.332 298.668H176.332C185.164 298.668 192.332 305.836 192.332 314.668C192.332 323.5 185.164 330.668 176.332 330.668H144.332C141.391 330.668 139 333.055 139 336V389.332C139 392.277 141.391 394.668 144.332 394.668H160.332V388.438C154.105 386.219 149.668 380.309 149.668 373.332C149.668 364.5 156.836 357.332 165.668 357.332H176.332C185.164 357.332 192.332 364.5 192.332 373.332V410.668C192.332 419.5 185.164 426.668 176.332 426.668V426.668Z" fill="#42AEF0"/>
<path d="M245.668 426.668C236.836 426.668 229.668 419.5 229.668 410.668V314.668C229.668 305.836 236.836 298.668 245.668 298.668C254.5 298.668 261.668 305.836 261.668 314.668V410.668C261.668 419.5 254.5 426.668 245.668 426.668Z" fill="#42AEF0"/>
<path d="M309.668 426.668C300.836 426.668 293.668 419.5 293.668 410.668V336C293.668 315.414 310.414 298.668 331 298.668H368.332C377.164 298.668 384.332 305.836 384.332 314.668C384.332 323.5 377.164 330.668 368.332 330.668H331C328.055 330.668 325.668 333.055 325.668 336V410.668C325.668 419.5 318.5 426.668 309.668 426.668V426.668Z" fill="#42AEF0"/>
<path d="M368.332 384H309.668C300.836 384 293.668 376.832 293.668 368C293.668 359.168 300.836 352 309.668 352H368.332C377.164 352 384.332 359.168 384.332 368C384.332 376.832 377.164 384 368.332 384Z" fill="#42AEF0"/>
</svg>
